<svg xmlns="http://www.w3.org/2000/svg" width="256" height="256" viewBox="0 0 100 100"><rect width="100" height="100" rx="50" fill="#6eace7"></rect><path d="M30.69 57.31L23.82 57.31L23.82 71.93Q23.41 72.07 22.73 72.24Q22.05 72.41 21.24 72.41L21.24 72.41Q18.24 72.41 18.24 69.89L18.24 69.89L18.24 33.71Q18.24 32.63 18.79 32.05Q19.33 31.47 20.49 31.13L20.49 31.13Q22.46 30.52 25.28 30.25Q28.10 29.97 30.76 29.97L30.76 29.97Q39.39 29.97 43.37 33.61Q47.35 37.25 47.35 43.44L47.35 43.44Q47.35 49.76 43.27 53.54Q39.19 57.31 30.69 57.31L30.69 57.31ZM23.75 52.69L30.35 52.69Q35.79 52.69 38.78 50.44Q41.77 48.20 41.77 43.51L41.77 43.51Q41.77 38.88 38.88 36.74Q35.99 34.60 30.62 34.60L30.62 34.60Q28.78 34.60 26.98 34.77Q25.18 34.94 23.75 35.21L23.75 35.21L23.75 52.69ZM61.42 71.93L61.42 71.93Q61.08 72.07 60.40 72.24Q59.72 72.41 58.91 72.41L58.91 72.41Q55.98 72.41 55.98 69.96L55.98 69.96L55.98 28.00Q56.32 27.87 57.04 27.70Q57.75 27.53 58.57 27.53L58.57 27.53Q61.42 27.53 61.42 29.97L61.42 29.97L61.42 54.45L76.32 40.04Q77.95 40.11 78.87 40.82Q79.78 41.53 79.78 42.69L79.78 42.69Q79.78 43.64 79.17 44.36Q78.56 45.07 77.54 46.02L77.54 46.02L66.59 55.61L81.76 69.21Q81.62 70.71 80.84 71.59Q80.06 72.47 78.76 72.47L78.76 72.47Q77.74 72.47 76.89 71.96Q76.04 71.45 75.16 70.50L75.16 70.50L61.42 56.70L61.42 71.93Z" fill="#000000"></path></svg>